<?xml version="1.0" encoding="UTF-8"?>
<svg id="Layer_2" data-name="Layer 2" xmlns="http://www.w3.org/2000/svg" viewBox="0 0 854.87 966.86">
  <g id="Layer_1-2" data-name="Layer 1">
    <g>
      <g>
        <circle cx="809" cy="483.43" r="45.87" style="fill: #8fa998;"/>
        <circle cx="45.87" cy="483.43" r="45.87" style="fill: #8fa998;"/>
      </g>
      <path d="M829.38,662.32c-12.62-7.28-27.25-7.85-39.82-2.87-3.09,1.07-6,1.81-8.7,2.21-38.49,6.46-70.48-27.39-75.86-63.94,0,0-.03.06-.04.07-2.52-19.54-13.79-37.73-32.18-48.33-18.69-10.78-40.49-11.28-58.86-3.27-21.92,7.28-43,5.52-62.71-4.79-5.29-3.11-10.34-6.61-15.16-10.39,6.59-14.67,10.29-30.93,10.29-48.05s-3.6-32.96-10.03-47.48c4.72-3.69,9.67-7.08,14.86-10.1,19.68-10.32,40.79-12.1,62.7-4.83,18.38,8,40.17,7.49,58.86-3.3,18.38-10.62,29.64-28.81,32.15-48.35.01.02.04.07.04.07,3.21-20.93,14.18-39.63,30.13-51.97,14.92-11.95,35.86-16.24,54.38-9.82,12.58,4.98,27.21,4.4,39.83-2.89,21.94-12.67,29.45-40.72,16.78-62.66-12.67-21.94-40.72-29.45-62.66-16.78-12.62,7.29-20.43,19.67-22.41,33.05-.62,3.21-1.43,6.1-2.44,8.63-13.66,36.56-58.97,47.33-93.31,33.71,0,0,.03.06.04.07-18.18-7.59-39.57-6.93-57.95,3.69-18.68,10.79-30.02,29.42-32.27,49.33-4.66,22.63-16.73,40-35.52,51.91-5.25,2.97-10.71,5.55-16.29,7.81-19.23-25.91-48.88-43.61-82.75-46.92-.93-6.25-1.43-12.56-1.45-18.89.91-22.2,9.92-41.38,27.18-56.71,16.12-11.91,26.59-31.04,26.59-52.62s-10.12-40.08-25.79-52.02h.09c-16.52-13.25-27.22-32.1-29.93-52.09-2.88-18.9,3.87-39.18,18.7-52,10.6-8.4,17.42-21.36,17.42-35.94,0-25.33-20.53-45.87-45.87-45.87s-45.87,20.53-45.87,45.87c0,14.57,6.82,27.53,17.41,35.93,2.47,2.14,4.57,4.29,6.25,6.43,24.83,30.11,11.49,74.74-17.48,97.66h.09c-15.67,11.94-25.79,30.8-25.79,52.02s10.46,40.71,26.58,52.62c17.26,15.35,26.26,34.5,27.18,56.71-.06,6.46-.6,12.9-1.56,19.27-33.01,4.13-61.75,21.94-80.37,47.6-6.42-2.44-12.64-5.37-18.62-8.79-18.78-11.88-30.88-29.27-35.55-51.88-2.26-19.91-13.61-38.54-32.3-49.32-18.38-10.6-39.77-11.26-57.95-3.65.01-.02.04-.07.04-.07-19.73,7.69-41.41,7.54-60.07-.1-17.81-6.95-32-22.92-35.7-42.17-1.98-13.38-9.8-25.77-22.43-33.05-21.94-12.66-49.99-5.13-62.65,16.81-12.66,21.94-5.13,49.99,16.81,62.65,12.62,7.28,27.25,7.85,39.82,2.87,3.09-1.07,6-1.81,8.7-2.21,38.49-6.46,70.48,27.39,75.86,63.94,0,0,.03-.06.04-.08,2.52,19.54,13.79,37.73,32.18,48.33,18.69,10.78,40.49,11.28,58.86,3.27,21.92-7.28,43.01-5.51,62.71,4.79,6,3.53,11.71,7.51,17.09,11.89-5.92,14.02-9.19,29.44-9.19,45.62s3.41,32.18,9.55,46.41c-5.46,4.49-11.28,8.55-17.41,12.11-19.68,10.32-40.79,12.1-62.7,4.83-18.38-8.01-40.18-7.49-58.86,3.3-18.38,10.62-29.64,28.81-32.15,48.35-.01-.02-.04-.07-.04-.07-3.21,20.93-14.18,39.63-30.13,51.97-14.93,11.95-35.86,16.24-54.38,9.82-12.58-4.98-27.21-4.4-39.83,2.89-21.93,12.67-29.45,40.72-16.77,62.66,12.67,21.94,40.72,29.45,62.66,16.78,12.62-7.29,20.43-19.67,22.41-33.05.62-3.21,1.43-6.1,2.44-8.63,13.66-36.56,58.97-47.33,93.31-33.71,0,0-.03-.06-.04-.07,18.18,7.59,39.57,6.93,57.94-3.69,18.69-10.79,30.02-29.42,32.27-49.34,4.66-22.63,16.73-40,35.52-51.9,6.15-3.48,12.57-6.47,19.16-8.96,18.62,25.19,47.07,42.65,79.68,46.75,1.06,6.68,1.62,13.44,1.64,20.22-.91,22.2-9.92,41.37-27.18,56.71-16.12,11.91-26.59,31.04-26.59,52.62s10.12,40.08,25.79,52.02h-.09c16.52,13.25,27.22,32.1,29.93,52.09,2.88,18.9-3.87,39.18-18.7,52-10.6,8.4-17.42,21.36-17.42,35.94,0,25.33,20.54,45.87,45.87,45.87s45.87-20.54,45.87-45.87c0-14.57-6.82-27.53-17.41-35.93-2.47-2.14-4.57-4.29-6.26-6.43-24.83-30.11-11.49-74.74,17.48-97.66h-.09c15.67-11.94,25.79-30.8,25.79-52.02s-10.46-40.71-26.58-52.62c-17.26-15.35-26.27-34.5-27.18-56.72.06-6.66.62-13.29,1.64-19.85,33.53-3.33,62.9-20.77,82.11-46.29,5.77,2.29,11.39,4.97,16.8,8.07,18.78,11.88,30.88,29.27,35.55,51.88,2.26,19.92,13.61,38.54,32.3,49.32,18.38,10.6,39.77,11.26,57.95,3.65-.01.02-.04.07-.04.07,19.73-7.69,41.41-7.54,60.07.1,17.81,6.95,32,22.93,35.7,42.18,1.98,13.38,9.8,25.76,22.43,33.05,21.94,12.66,49.99,5.13,62.65-16.81,12.66-21.94,5.13-49.99-16.81-62.65Z" style="fill: #8fa998;"/>
      <g>
        <path d="M259.52,189.39c21.94-12.67,29.45-40.72,16.78-62.66-12.67-21.94-40.72-29.45-62.66-16.78-21.94,12.67-29.45,40.72-16.78,62.66,12.67,21.94,40.72,29.45,62.66,16.78Z" style="fill: #8fa998;"/>
        <path d="M590.14,189.8c22.16,12.28,50.07,4.27,62.35-17.89,12.28-22.16,4.27-50.07-17.89-62.35-22.16-12.28-50.07-4.27-62.35,17.89-12.28,22.16-4.27,50.07,17.89,62.35Z" style="fill: #8fa998;"/>
        <g>
          <path d="M595.34,777.47c-21.94,12.67-29.45,40.72-16.78,62.66,12.67,21.94,40.72,29.45,62.66,16.78,21.94-12.67,29.45-40.72,16.78-62.66-12.67-21.94-40.72-29.45-62.66-16.78Z" style="fill: #8fa998;"/>
          <path d="M264.73,777.06c-22.16-12.28-50.07-4.27-62.35,17.89-12.28,22.16-4.27,50.07,17.89,62.35,22.16,12.28,50.07,4.27,62.35-17.89,12.28-22.16,4.27-50.07-17.89-62.35Z" style="fill: #8fa998;"/>
        </g>
      </g>
    </g>
  </g>
</svg>