<svg width="14" height="14" viewBox="0 0 14 14" fill="none" xmlns="http://www.w3.org/2000/svg">
<g clip-path="url(#clip0_26_1088)">
<path d="M8.65932 6.92749V10.3912M6.92745 8.65936H10.3912M2.30912 9.23666C1.6741 9.23666 1.15454 8.71709 1.15454 8.08207V2.30916C1.15454 1.67414 1.6741 1.15458 2.30912 1.15458H8.08203C8.71705 1.15458 9.23661 1.67414 9.23661 2.30916M5.77287 4.61833H11.5458C12.1834 4.61833 12.7004 5.13525 12.7004 5.77291V11.5458C12.7004 12.1835 12.1834 12.7004 11.5458 12.7004H5.77287C5.13521 12.7004 4.61829 12.1835 4.61829 11.5458V5.77291C4.61829 5.13525 5.13521 4.61833 5.77287 4.61833Z" stroke="black" stroke-linecap="round" stroke-linejoin="round"/>
</g>
<defs>
<clipPath id="clip0_26_1088">
<rect width="13.855" height="13.855" fill="white"/>
</clipPath>
</defs>
</svg>
